<svg width="30" height="32" viewBox="0 0 30 32" fill="none" xmlns="http://www.w3.org/2000/svg">
<path d="M3.19191 8.10565C3.69558 7.94883 4.25206 8.12872 4.5696 8.56984C4.92242 9.05998 4.88067 9.73427 4.47015 10.1762L3.34567 11.0177C2.81286 11.4649 2.5029 12.1272 2.49884 12.827V25.6604C2.51404 27.751 4.19176 29.4397 6.26099 29.4473H12.6469V29.4754C13.337 29.4754 13.8963 30.0405 13.8963 30.7377C13.8963 31.4348 13.337 32 12.6469 32H6.26099C2.80631 31.9923 0.00763468 29.1648 0 25.6745V12.827C0.0220878 11.3424 0.711833 9.9487 1.87413 9.04009L3.02638 8.1705L3.19191 8.10565ZM11.3697 1.28393C13.4777 -0.427978 16.4806 -0.427978 18.5886 1.28393L28.1814 9.01204C29.3181 9.93569 29.9854 11.3253 30 12.799L29.9861 25.6604C29.9861 29.1539 27.183 31.986 23.7251 31.986H20.9486C19.275 31.986 17.916 30.6193 17.9084 28.9284V23.1218L17.8954 22.9756C17.8272 22.5961 17.4985 22.3083 17.1032 22.3083H12.9385C12.7225 22.3083 12.5155 22.3959 12.3641 22.5515C12.2127 22.7071 12.1295 22.9177 12.1333 23.1358V25.3519C12.1333 26.049 11.5739 26.6142 10.8839 26.6142C10.1938 26.6142 9.63443 26.049 9.63443 25.3519V23.1358C9.63443 22.2468 9.98399 21.3942 10.6062 20.7655C11.2285 20.1369 12.0724 19.7837 12.9523 19.7837H17.1171C18.9441 19.7914 20.4211 21.29 20.4211 23.1358V28.9284C20.4211 29.2227 20.6573 29.4614 20.9486 29.4614H23.7945C25.8647 29.4614 27.5428 27.7659 27.5428 25.6745V12.827C27.5326 12.1153 27.2064 11.4458 26.6543 11.0037L17.0615 3.27557C15.8519 2.26942 14.1065 2.26942 12.8968 3.27557L9.8149 5.60382C9.2437 6.01824 8.44813 5.88637 8.03795 5.30928C7.62776 4.73219 7.75828 3.92842 8.32948 3.514L11.3697 1.28393Z" fill="#242135"/>
</svg>
