<svg width="34" height="34" viewBox="0 0 34 34" fill="none" xmlns="http://www.w3.org/2000/svg">
<path d="M24.4103 0C30.1461 0 34 4.0256 34 10.0181V14.0471C34 14.7016 33.4679 15.2337 32.8134 15.2337C32.1589 15.2337 31.6268 14.7016 31.6268 14.0471V10.0181C31.6268 5.372 28.7946 2.3732 24.4103 2.3732H9.5897C5.2054 2.3732 2.3715 5.372 2.3715 10.0181V23.9819C2.3715 28.628 5.2054 31.6268 9.5897 31.6268H24.4086C28.7929 31.6268 31.6268 28.628 31.6268 23.9819V22.1374C31.3684 21.9232 31.1049 21.6937 30.838 21.4625C28.968 19.8458 27.0385 18.1764 24.9288 18.6643C23.4549 19.006 22.6321 20.2215 21.6801 21.6274C20.859 22.8412 20.009 24.0958 18.6371 24.9458C16.5886 26.214 14.4262 25.2688 12.8452 24.5786L12.5834 24.4647C10.6148 23.6045 9.2922 23.7779 8.0223 25.058C7.5616 25.5221 6.8102 25.5289 6.3461 25.0648C5.882 24.6041 5.8786 23.851 6.3393 23.3869C8.313 21.3979 10.6641 21.0392 13.5303 22.287L13.7972 22.406C15.368 23.0928 16.4662 23.5025 17.3893 22.9279C18.3294 22.3482 19.0026 21.352 19.7166 20.2963C20.7927 18.7085 22.0116 16.9048 24.3916 16.3523C27.676 15.5873 30.2889 17.8517 32.3901 19.6673C32.7879 20.0124 33.1755 20.349 33.5529 20.6499C33.8351 20.876 33.9983 21.216 33.9983 21.5764L34 23.9819C34 29.9744 30.1444 34 24.4086 34H9.5897C3.8539 34 0 29.9744 0 23.9819V10.0181C0 4.0256 3.8539 0 9.5897 0H24.4103ZM11.6511 7.17757C14.0498 7.17757 15.9997 9.12917 15.9997 11.5262C15.9997 13.9249 14.0498 15.8765 11.6511 15.8765C9.25242 15.8765 7.30252 13.9249 7.30252 11.5262C7.30252 9.12917 9.25242 7.17757 11.6511 7.17757ZM11.6511 9.55077C10.5614 9.55077 9.67402 10.4365 9.67402 11.5262C9.67402 12.6176 10.5614 13.5033 11.6511 13.5033C12.7425 13.5033 13.6282 12.6176 13.6282 11.5262C13.6282 10.4365 12.7425 9.55077 11.6511 9.55077Z" fill="#242135"/>
</svg>
