<svg width="42" height="32" viewBox="0 0 42 32" fill="none" xmlns="http://www.w3.org/2000/svg">
<path d="M21.7592 20.0036C25.6994 20.0274 33.8675 20.3922 33.8675 25.9861C33.8675 31.6078 25.4052 31.9744 21.7016 31.9983L21.0004 32C20.2708 32 19.6787 31.4129 19.6787 30.6896C19.6787 29.9663 20.2708 29.3792 21.0004 29.3792C25.6637 29.3792 31.2239 28.7904 31.2239 25.9861C31.2239 23.7532 27.7855 22.6228 21.0004 22.6228C16.3372 22.6228 10.777 23.2116 10.777 26.0176C10.777 26.6431 10.962 27.4485 12.4054 28.1492C12.9975 28.4375 13.7483 28.6786 14.633 28.8655C15.3468 29.0158 15.8032 29.7129 15.6499 30.4205C15.4983 31.1281 14.7934 31.5859 14.0832 31.4287C12.987 31.1963 12.0318 30.8853 11.2422 30.5044C8.67269 29.2551 8.13341 27.3752 8.13341 26.0176C8.13341 20.3943 16.5956 20.0276 20.2992 20.0036L21.7592 20.0036ZM34.4963 18.8193C35.4744 18.8839 36.4578 19.0255 37.4236 19.2369C39.5754 19.6597 40.9941 20.528 41.6127 21.8122C42.1291 22.8868 42.1291 24.1168 41.6127 25.1913C41.0012 26.465 39.586 27.3369 37.4024 27.7824C37.3143 27.8016 37.2244 27.8104 37.1345 27.8104C36.5212 27.8104 35.9714 27.3823 35.8427 26.7638C35.6965 26.0544 36.1564 25.3608 36.872 25.2158C38.6749 24.8471 39.119 24.288 39.2265 24.0644C39.3974 23.708 39.3974 23.2974 39.2265 22.9409C39.0009 22.4709 38.125 22.0464 36.8808 21.8018C36.0154 21.6131 35.1625 21.489 34.32 21.4331C33.5904 21.3859 33.0406 20.7587 33.0899 20.0371C33.1375 19.3155 33.7737 18.7808 34.4963 18.8193ZM7.51781 18.7924C8.22276 18.7382 8.8766 19.2886 8.92594 20.0102C8.97529 20.7335 8.42543 21.359 7.69581 21.4062C6.84635 21.4621 5.99337 21.5862 5.15977 21.7714C3.88029 22.0212 3.00087 22.4475 2.77352 22.9193C2.60257 23.2774 2.60257 23.6915 2.77352 24.0497C2.88279 24.2751 3.32691 24.8359 5.13686 25.2046C5.85238 25.3496 6.31235 26.0415 6.16608 26.7509C6.03919 27.3711 5.48757 27.7975 4.8725 27.7975C4.78438 27.7975 4.69626 27.7887 4.60638 27.7712C2.41929 27.3275 1.00058 26.4539 0.38728 25.1749C-0.129093 24.1004 -0.129093 22.8686 0.38728 21.7941C1.00763 20.5029 2.42986 19.631 4.6152 19.2047C5.54749 18.9985 6.53617 18.857 7.51781 18.7924ZM21.001 0C25.8087 0 29.7212 3.87704 29.7212 8.64515C29.7212 13.4133 25.8087 17.2903 21.001 17.2903C19.0324 17.2903 17.1766 16.6631 15.6363 15.475C15.06 15.0312 14.9561 14.2082 15.4037 13.6369C15.8496 13.0638 16.6832 12.9625 17.2595 13.408C18.331 14.2327 19.6246 14.6695 21.001 14.6695C24.353 14.6695 27.0776 11.9666 27.0776 8.64515C27.0776 5.32372 24.353 2.6208 21.001 2.6208C17.6489 2.6208 14.9226 5.32372 14.9226 8.64515C14.9226 9.3685 14.3304 9.95556 13.6008 9.95556C12.8712 9.95556 12.279 9.3685 12.279 8.64515C12.279 3.87704 16.1915 0 21.001 0ZM31.8499 1.79018C35.6461 1.79018 38.7355 4.85128 38.7355 8.6165C38.7355 12.38 35.6461 15.4428 31.8499 15.4428C31.1203 15.4428 30.5281 14.8558 30.5281 14.1324C30.5281 13.4091 31.1203 12.822 31.8499 12.822C34.1886 12.822 36.0919 10.935 36.0919 8.6165C36.0919 6.29796 34.1886 4.41099 31.8499 4.41099C31.1203 4.41099 30.5281 3.82393 30.5281 3.10058C30.5281 2.3755 31.1203 1.79018 31.8499 1.79018ZM10.1723 1.71785C10.9019 1.71785 11.4941 2.30491 11.4941 3.02825C11.4941 3.75159 10.9019 4.33865 10.1723 4.33865C7.82482 4.33865 5.91441 6.23262 5.91441 8.55989C5.91441 10.8872 7.82482 12.7794 10.1723 12.7794C10.9019 12.7794 11.4941 13.3664 11.4941 14.0898C11.4941 14.8131 10.9019 15.4002 10.1723 15.4002C6.36734 15.4002 3.27086 12.3321 3.27086 8.55989C3.27086 4.78768 6.36734 1.71785 10.1723 1.71785Z" fill="#242135"/>
</svg>
